<?xml version="1.0" encoding="UTF-8" standalone="no"?>
<!-- Created with Inkscape (http://www.inkscape.org/) -->
<svg
   xmlns:svg="http://www.w3.org/2000/svg"
   xmlns="http://www.w3.org/2000/svg"
   xmlns:xlink="http://www.w3.org/1999/xlink"
   version="1.0"
   width="711.4328"
   height="346.99658"
   id="svg2">
  <defs
     id="defs4">
    <clipPath
       id="clipPath4140">
      <rect
         width="171.11984"
         height="94.752312"
         x="555.51715"
         y="-468.29123"
         transform="scale(1,-1)"
         id="rect4142"
         style="opacity:1;fill:#000000;fill-opacity:1;fill-rule:nonzero;stroke:none;stroke-width:0;stroke-linecap:butt;stroke-linejoin:miter;marker:none;marker-start:none;marker-mid:none;marker-end:none;stroke-miterlimit:0;stroke-dasharray:none;stroke-dashoffset:0;stroke-opacity:1;visibility:visible;display:inline;overflow:visible;enable-background:accumulate" />
    </clipPath>
    <linearGradient
       x1="110"
       y1="130.75"
       x2="110"
       y2="148.25"
       id="linearGradient5487"
       xlink:href="#linearGradient11817"
       gradientUnits="userSpaceOnUse" />
    <linearGradient
       x1="110"
       y1="130.75"
       x2="110"
       y2="148.25"
       id="linearGradient5475"
       xlink:href="#linearGradient11817"
       gradientUnits="userSpaceOnUse" />
    <linearGradient
       x1="110"
       y1="130.75"
       x2="110"
       y2="148.25"
       id="linearGradient5463"
       xlink:href="#linearGradient11817"
       gradientUnits="userSpaceOnUse" />
    <linearGradient
       x1="110"
       y1="130.75"
       x2="110"
       y2="148.25"
       id="linearGradient5451"
       xlink:href="#linearGradient11817"
       gradientUnits="userSpaceOnUse" />
    <linearGradient
       x1="110"
       y1="130.75"
       x2="110"
       y2="148.25"
       id="linearGradient5439"
       xlink:href="#linearGradient11817"
       gradientUnits="userSpaceOnUse" />
    <linearGradient
       x1="110"
       y1="130.75"
       x2="110"
       y2="148.25"
       id="linearGradient5427"
       xlink:href="#linearGradient11817"
       gradientUnits="userSpaceOnUse" />
    <linearGradient
       x1="110"
       y1="130.75"
       x2="110"
       y2="148.25"
       id="linearGradient5415"
       xlink:href="#linearGradient11817"
       gradientUnits="userSpaceOnUse" />
    <linearGradient
       x1="110"
       y1="130.75"
       x2="110"
       y2="148.25"
       id="linearGradient5403"
       xlink:href="#linearGradient11817"
       gradientUnits="userSpaceOnUse" />
    <linearGradient
       x1="110"
       y1="130.75"
       x2="110"
       y2="148.25"
       id="linearGradient5391"
       xlink:href="#linearGradient11817"
       gradientUnits="userSpaceOnUse" />
    <linearGradient
       x1="110"
       y1="130.75"
       x2="110"
       y2="148.25"
       id="linearGradient5379"
       xlink:href="#linearGradient11817"
       gradientUnits="userSpaceOnUse" />
    <linearGradient
       x1="110"
       y1="130.75"
       x2="110"
       y2="148.25"
       id="linearGradient5367"
       xlink:href="#linearGradient11817"
       gradientUnits="userSpaceOnUse" />
    <linearGradient
       x1="110"
       y1="130.75"
       x2="110"
       y2="148.25"
       id="linearGradient5355"
       xlink:href="#linearGradient11817"
       gradientUnits="userSpaceOnUse" />
    <linearGradient
       x1="110"
       y1="130.75"
       x2="110"
       y2="148.25"
       id="linearGradient5343"
       xlink:href="#linearGradient11817"
       gradientUnits="userSpaceOnUse" />
    <linearGradient
       x1="110"
       y1="130.75"
       x2="110"
       y2="148.25"
       id="linearGradient5331"
       xlink:href="#linearGradient11817"
       gradientUnits="userSpaceOnUse" />
    <linearGradient
       x1="110"
       y1="130.75"
       x2="110"
       y2="148.25"
       id="linearGradient5319"
       xlink:href="#linearGradient11817"
       gradientUnits="userSpaceOnUse" />
    <linearGradient
       x1="110"
       y1="130.75"
       x2="110"
       y2="148.25"
       id="linearGradient5307"
       xlink:href="#linearGradient11817"
       gradientUnits="userSpaceOnUse" />
    <linearGradient
       x1="110"
       y1="130.75"
       x2="110"
       y2="148.25"
       id="linearGradient5295"
       xlink:href="#linearGradient11817"
       gradientUnits="userSpaceOnUse" />
    <linearGradient
       x1="110"
       y1="130.75"
       x2="110"
       y2="148.25"
       id="linearGradient5283"
       xlink:href="#linearGradient11817"
       gradientUnits="userSpaceOnUse" />
    <linearGradient
       x1="110"
       y1="130.75"
       x2="110"
       y2="148.25"
       id="linearGradient5271"
       xlink:href="#linearGradient11817"
       gradientUnits="userSpaceOnUse" />
    <linearGradient
       x1="110"
       y1="130.75"
       x2="110"
       y2="148.25"
       id="linearGradient5259"
       xlink:href="#linearGradient11817"
       gradientUnits="userSpaceOnUse" />
    <linearGradient
       x1="110"
       y1="130.75"
       x2="110"
       y2="148.25"
       id="linearGradient5247"
       xlink:href="#linearGradient11817"
       gradientUnits="userSpaceOnUse" />
    <linearGradient
       x1="110"
       y1="130.75"
       x2="110"
       y2="148.25"
       id="linearGradient5235"
       xlink:href="#linearGradient11817"
       gradientUnits="userSpaceOnUse" />
    <linearGradient
       x1="110"
       y1="130.75"
       x2="110"
       y2="148.25"
       id="linearGradient5223"
       xlink:href="#linearGradient11817"
       gradientUnits="userSpaceOnUse" />
    <linearGradient
       x1="110"
       y1="130.75"
       x2="110"
       y2="148.25"
       id="linearGradient5211"
       xlink:href="#linearGradient11817"
       gradientUnits="userSpaceOnUse" />
    <linearGradient
       x1="110"
       y1="130.75"
       x2="110"
       y2="148.25"
       id="linearGradient5199"
       xlink:href="#linearGradient11817"
       gradientUnits="userSpaceOnUse" />
    <linearGradient
       x1="80.256622"
       y1="9.3099833"
       x2="274.35742"
       y2="9.3099833"
       id="linearGradient4218"
       xlink:href="#linearGradient3229"
       gradientUnits="userSpaceOnUse"
       gradientTransform="matrix(0.9989939,-4.4846726e-2,4.4846726e-2,0.9989939,-0.243408,7.9831047)" />
    <linearGradient
       x1="110"
       y1="130.75"
       x2="110"
       y2="148.25"
       id="linearGradient16554"
       xlink:href="#linearGradient11817"
       gradientUnits="userSpaceOnUse" />
    <path
       d="M 160,220 L 360,70"
       id="path16490"
       style="fill:#000000;stroke:#000000" />
    <clipPath
       id="clipPath16496">
      <path
         d="M 126,152 C 126,156.41828 122.41828,160 118,160 C 113.58172,160 110,156.41828 110,152 C 110,147.58172 113.58172,144 118,144 C 122.41828,144 126,147.58172 126,152 z"
         transform="matrix(1.3067618,0,0,0.9582726,-44.197896,-2.990612)"
         id="path16498"
         style="opacity:1;fill:none;fill-opacity:1;fill-rule:nonzero;stroke:#b22222;stroke-width:1.78725791;stroke-linecap:butt;stroke-miterlimit:4;stroke-dasharray:none;stroke-dashoffset:0;stroke-opacity:1" />
    </clipPath>
    <clipPath
       id="clipPath16500">
      <path
         d="M 126,152 C 126,156.41828 122.41828,160 118,160 C 113.58172,160 110,156.41828 110,152 C 110,147.58172 113.58172,144 118,144 C 122.41828,144 126,147.58172 126,152 z"
         id="path16502"
         style="opacity:1;fill:none;fill-opacity:1;fill-rule:nonzero;stroke:#b22222;stroke-width:2;stroke-linecap:butt;stroke-miterlimit:4;stroke-dasharray:none;stroke-dashoffset:0;stroke-opacity:1" />
    </clipPath>
    <linearGradient
       x1="110"
       y1="130.75"
       x2="110"
       y2="148.25"
       id="linearGradient14392"
       xlink:href="#linearGradient11817"
       gradientUnits="userSpaceOnUse" />
    <path
       d="M 160,220 L 360,70"
       id="path14362"
       style="fill:#000000;stroke:#000000" />
    <linearGradient
       x1="110"
       y1="130.75"
       x2="110"
       y2="148.25"
       id="linearGradient14368"
       xlink:href="#linearGradient11817"
       gradientUnits="userSpaceOnUse" />
    <clipPath
       id="clipPath14370">
      <path
         d="M 126,152 C 126,156.41828 122.41828,160 118,160 C 113.58172,160 110,156.41828 110,152 C 110,147.58172 113.58172,144 118,144 C 122.41828,144 126,147.58172 126,152 z"
         transform="matrix(1.3067618,0,0,0.9582726,-44.197896,-2.990612)"
         id="path14372"
         style="opacity:1;fill:none;fill-opacity:1;fill-rule:nonzero;stroke:#b22222;stroke-width:1.78725791;stroke-linecap:butt;stroke-miterlimit:4;stroke-dasharray:none;stroke-dashoffset:0;stroke-opacity:1" />
    </clipPath>
    <clipPath
       id="clipPath14374">
      <path
         d="M 126,152 C 126,156.41828 122.41828,160 118,160 C 113.58172,160 110,156.41828 110,152 C 110,147.58172 113.58172,144 118,144 C 122.41828,144 126,147.58172 126,152 z"
         id="path14376"
         style="opacity:1;fill:none;fill-opacity:1;fill-rule:nonzero;stroke:#b22222;stroke-width:2;stroke-linecap:butt;stroke-miterlimit:4;stroke-dasharray:none;stroke-dashoffset:0;stroke-opacity:1" />
    </clipPath>
    <linearGradient
       x1="110"
       y1="130.75"
       x2="110"
       y2="148.25"
       id="linearGradient13307"
       xlink:href="#linearGradient11817"
       gradientUnits="userSpaceOnUse" />
    <linearGradient
       x1="110"
       y1="130.75"
       x2="110"
       y2="148.25"
       id="linearGradient13297"
       xlink:href="#linearGradient11817"
       gradientUnits="userSpaceOnUse" />
    <linearGradient
       id="linearGradient11817">
      <stop
         id="stop11819"
         style="stop-color:#b22222;stop-opacity:1"
         offset="0" />
      <stop
         id="stop11821"
         style="stop-color:#b22222;stop-opacity:0"
         offset="1" />
    </linearGradient>
    <path
       d="M 160,220 L 360,70"
       id="path13271"
       style="fill:#000000;stroke:#000000" />
    <linearGradient
       x1="110"
       y1="130.75"
       x2="110"
       y2="148.25"
       id="linearGradient11823"
       xlink:href="#linearGradient11817"
       gradientUnits="userSpaceOnUse" />
    <clipPath
       id="clipPath11831">
      <path
         d="M 126,152 C 126,156.41828 122.41828,160 118,160 C 113.58172,160 110,156.41828 110,152 C 110,147.58172 113.58172,144 118,144 C 122.41828,144 126,147.58172 126,152 z"
         transform="matrix(1.3067618,0,0,0.9582726,-44.197896,-2.990612)"
         id="path11833"
         style="opacity:1;fill:none;fill-opacity:1;fill-rule:nonzero;stroke:#b22222;stroke-width:1.78725791;stroke-linecap:butt;stroke-miterlimit:4;stroke-dasharray:none;stroke-dashoffset:0;stroke-opacity:1" />
    </clipPath>
    <clipPath
       id="clipPath11835">
      <path
         d="M 126,152 C 126,156.41828 122.41828,160 118,160 C 113.58172,160 110,156.41828 110,152 C 110,147.58172 113.58172,144 118,144 C 122.41828,144 126,147.58172 126,152 z"
         id="path11837"
         style="opacity:1;fill:none;fill-opacity:1;fill-rule:nonzero;stroke:#b22222;stroke-width:2;stroke-linecap:butt;stroke-miterlimit:4;stroke-dasharray:none;stroke-dashoffset:0;stroke-opacity:1" />
    </clipPath>
    <path
       d="M 160,220 L 360,70"
       id="ray"
       style="fill:#000000;stroke:#000000" />
    <linearGradient
       id="linearGradient3229">
      <stop
         id="stop3231"
         style="stop-color:#00517e;stop-opacity:1"
         offset="0" />
      <stop
         id="stop3233"
         style="stop-color:#000000;stop-opacity:0"
         offset="1" />
    </linearGradient>
    <marker
       refX="0"
       refY="0"
       orient="auto"
       id="Arrow2Lend"
       style="overflow:visible">
      <path
         d="M 8.7185878,4.0337352 L -2.2072895,0.016013256 L 8.7185884,-4.0017078 C 6.97309,-1.6296469 6.9831476,1.6157441 8.7185878,4.0337352 z"
         transform="matrix(-1.1,0,0,-1.1,-1.1,0)"
         id="path3306"
         style="font-size:12px;fill-rule:evenodd;stroke-width:0.625;stroke-linejoin:round" />
    </marker>
  </defs>
  <g
     transform="translate(251.56323,-386.8757)"
     id="layer1">
    <g
       transform="matrix(0.9854099,0.1701978,-0.1701978,0.9854099,19.29774,7.4407216)"
       id="g2856">
      <text
         x="206.84438"
         y="437.25107"
         id="text4121"
         xml:space="preserve"
         style="font-size:25px;font-style:normal;font-variant:normal;font-weight:400;font-stretch:normal;text-indent:0;text-align:start;text-decoration:none;line-height:100%;letter-spacing:normal;word-spacing:normal;text-transform:none;direction:ltr;block-progression:tb;writing-mode:lr-tb;text-anchor:start;fill:#000000;fill-opacity:1;fill-rule:nonzero;stroke:none;stroke-width:0;stroke-linecap:butt;stroke-linejoin:miter;marker:none;marker-start:none;marker-mid:none;marker-end:none;stroke-miterlimit:0;stroke-dasharray:none;stroke-dashoffset:0;stroke-opacity:1;visibility:visible;display:inline;overflow:visible;enable-background:accumulate;font-family:Times New Roman;-inkscape-font-specification:Bitstream Vera Sans"><tspan
           x="206.84438"
           y="437.25107"
           id="tspan4123"
           style="font-size:16px;font-style:normal;font-variant:normal;font-weight:normal;font-stretch:normal;text-indent:0;text-align:start;text-decoration:none;line-height:100%;letter-spacing:normal;word-spacing:normal;text-transform:none;direction:ltr;block-progression:tb;writing-mode:lr-tb;text-anchor:start;opacity:1;fill:#000000;fill-opacity:1;fill-rule:nonzero;stroke-width:0;marker:none;marker-start:none;marker-mid:none;marker-end:none;stroke-miterlimit:0;stroke-dasharray:none;stroke-dashoffset:0;stroke-opacity:1;visibility:visible;display:inline;overflow:visible;enable-background:accumulate;font-family:Arial;-inkscape-font-specification:Arial">99.88%</tspan></text>
      <text
         x="78.005753"
         y="437.25107"
         id="text2784"
         xml:space="preserve"
         style="font-size:24px;font-style:normal;font-variant:normal;font-weight:normal;font-stretch:normal;text-align:start;line-height:125%;writing-mode:lr-tb;text-anchor:start;fill:#000000;fill-opacity:1;stroke:none;stroke-width:1px;stroke-linecap:butt;stroke-linejoin:miter;stroke-opacity:1;font-family:Arial;-inkscape-font-specification:Arial"><tspan
           x="78.005753"
           y="437.25107"
           id="tspan2786">0.31 MeV β</tspan></text>
    </g>
    <g
       transform="matrix(1.4309669,0,0,1.5641403,-266.58838,376.4099)"
       id="g7090">
      <path
         d="M 21.507139,43.228306 L 20.657139,43.228306 C 20.585711,43.778306 20.335711,45.249735 20.014282,45.499735 C 19.814282,45.649735 17.892854,45.649735 17.549996,45.649735 L 12.964282,45.649735 C 15.578568,43.328306 16.449996,42.635449 17.942854,41.464021 C 19.785711,39.992592 21.507139,38.449735 21.507139,36.078306 C 21.507139,33.071164 18.864282,31.228307 15.678568,31.228307 C 12.592854,31.228307 10.499997,33.392592 10.499997,35.685449 C 10.499997,36.956878 11.571425,37.078306 11.814282,37.078306 C 12.414282,37.078306 13.135711,36.656878 13.135711,35.756878 C 13.135711,35.314021 12.964282,34.435449 11.671425,34.435449 C 12.442854,32.671164 14.135711,32.121164 15.307139,32.121164 C 17.792854,32.121164 19.092854,34.064021 19.092854,36.078306 C 19.092854,38.249735 17.549996,39.971163 16.749996,40.864021 L 10.749997,46.792592 C 10.499997,47.01402 10.499997,47.06402 10.499997,47.76402 L 20.757139,47.76402 L 21.507139,43.228306 z"
         id="path6096"
         style="font-style:normal;font-variant:normal;font-weight:normal;font-stretch:normal;letter-spacing:normal;word-spacing:normal;text-anchor:start;fill:#000000;fill-opacity:1;fill-rule:evenodd;stroke:#000000;stroke-width:0;stroke-linecap:butt;stroke-linejoin:miter;stroke-miterlimit:10.43299961;stroke-dasharray:none;stroke-dashoffset:0;stroke-opacity:1" />
      <path
         d="M 35.828567,32.721164 L 35.849996,32.692592 L 35.871425,32.664021 L 35.88571,32.642592 L 35.907139,32.614021 L 35.921425,32.592592 L 35.942853,32.571164 L 35.957139,32.549735 L 35.971425,32.528306 L 35.978567,32.506878 L 35.992853,32.485449 L 36.007139,32.464021 L 36.014282,32.442592 L 36.021425,32.421164 L 36.028567,32.399735 L 36.03571,32.378306 L 36.042853,32.349735 L 36.049996,32.328306 L 36.049996,32.299735 L 36.057139,32.271164 L 36.064282,32.242592 L 36.064282,32.214021 L 36.064282,32.178306 L 36.071425,32.149735 L 36.071425,32.106878 L 36.071425,32.071164 L 36.071425,32.028306 L 36.071425,31.985449 L 36.071425,31.942592 L 36.071425,31.892592 L 36.071425,31.864021 L 36.071425,31.835449 L 36.071425,31.814021 L 36.071425,31.785449 L 36.071425,31.749735 L 36.071425,31.721164 L 29.549996,31.721164 C 28.549996,31.721164 28.278568,31.699735 27.38571,31.628307 C 26.085711,31.528307 26.035711,31.349735 25.964282,30.928307 L 25.114282,30.928307 L 24.242853,36.256878 L 25.092853,36.256878 C 25.142853,35.885449 25.385711,34.242592 25.785711,33.992592 C 25.985711,33.842592 28.007139,33.842592 28.378568,33.842592 L 33.807139,33.842592 C 33.007139,34.885449 31.742853,36.428306 31.214282,37.128306 C 27.957139,41.414021 27.657139,45.371163 27.657139,46.842592 C 27.657139,47.11402 27.657139,48.26402 28.828568,48.26402 C 30.021425,48.26402 30.021425,47.142592 30.021425,46.821163 L 30.021425,45.821163 C 30.021425,40.992592 31.021425,38.771164 32.092853,37.428306 L 35.828567,32.721164 z"
         id="path6098"
         style="font-style:normal;font-variant:normal;font-weight:normal;font-stretch:normal;letter-spacing:normal;word-spacing:normal;text-anchor:start;fill:#000000;fill-opacity:1;fill-rule:evenodd;stroke:#000000;stroke-width:0;stroke-linecap:butt;stroke-linejoin:miter;stroke-miterlimit:10.43299961;stroke-dasharray:none;stroke-dashoffset:0;stroke-opacity:1" />
      <path
         d="M 62.59285,18.53545 L 62.58571,18.478307 L 62.58571,18.421164 L 62.58571,18.371164 L 62.58571,18.321164 L 62.58571,18.278307 L 62.58571,18.228307 L 62.58571,18.18545 L 62.58571,18.142592 L 62.57857,18.106878 L 62.57857,18.071164 L 62.57142,18.028307 L 62.57142,17.999735 L 62.56428,17.964021 L 62.55714,17.93545 L 62.55,17.906878 L 62.54285,17.878307 L 62.52857,17.856878 L 62.52142,17.83545 L 62.50714,17.814021 L 62.492853,17.792592 L 62.478567,17.771164 L 62.464281,17.756878 L 62.442853,17.742592 L 62.421424,17.728307 L 62.399996,17.714021 L 62.378567,17.706878 L 62.357138,17.699735 L 62.328567,17.692593 L 62.299996,17.68545 L 62.264281,17.68545 L 62.23571,17.678307 L 62.199996,17.678307 C 62.057138,17.678307 61.914281,17.678307 61.628567,18.106878 L 59.849996,20.73545 C 58.53571,19.456878 56.721424,17.678307 53.307139,17.678307 C 46.649996,17.678307 40.921425,23.33545 40.921425,30.592592 C 40.921425,37.956878 46.68571,43.549735 53.307139,43.549735 C 59.099996,43.549735 62.59285,38.599735 62.59285,34.471164 C 62.59285,34.114021 62.59285,33.871164 62.128567,33.871164 C 61.73571,33.871164 61.73571,34.078306 61.699996,34.435449 C 61.414281,39.528306 57.607138,42.442592 53.728567,42.442592 C 51.557139,42.442592 44.58571,41.235449 44.58571,30.635449 C 44.58571,19.992592 51.521424,18.78545 53.692853,18.78545 C 57.571424,18.78545 60.73571,22.021164 61.449996,27.214021 C 61.521424,27.714021 61.521424,27.821164 62.021424,27.821164 C 62.59285,27.821164 62.59285,27.714021 62.59285,26.964021 L 62.59285,18.53545 z"
         id="path6100"
         style="font-style:normal;font-variant:normal;font-weight:normal;font-stretch:normal;letter-spacing:normal;word-spacing:normal;text-anchor:start;fill:#000000;fill-opacity:1;fill-rule:evenodd;stroke:#000000;stroke-width:0;stroke-linecap:butt;stroke-linejoin:miter;stroke-miterlimit:10.43299961;stroke-dasharray:none;stroke-dashoffset:0;stroke-opacity:1" />
      <path
         d="M 81.4,35.149735 L 81.39285,34.728306 L 81.35714,34.306878 L 81.30714,33.892592 L 81.24285,33.485449 L 81.15,33.085449 L 81.04285,32.692592 L 80.92142,32.306878 L 80.77857,31.928307 L 80.62142,31.556878 L 80.44285,31.199735 L 80.25714,30.849735 L 80.05,30.514021 L 79.82857,30.185449 L 79.59285,29.871164 L 79.34285,29.571164 L 79.08571,29.278307 L 78.80714,28.999735 L 78.52142,28.742592 L 78.22857,28.492592 L 77.91428,28.256878 L 77.6,28.042592 L 77.27142,27.835449 L 76.92857,27.649735 L 76.58571,27.485449 L 76.22857,27.335449 L 75.86428,27.199735 L 75.49285,27.085449 L 75.11428,26.992592 L 74.72857,26.921164 L 74.33571,26.864021 L 73.93571,26.835449 L 73.53571,26.821164 L 73.5,27.606878 C 75.06428,27.606878 76.6,28.385449 77.52142,29.921164 C 78.45,31.449735 78.45,33.514021 78.45,34.864021 C 78.45,36.142592 78.45,38.071164 77.66428,39.635449 C 76.88571,41.235449 75.32142,42.264021 73.53571,42.264021 L 73.53571,42.264021 C 72.00714,42.264021 70.44285,41.521163 69.47857,39.878306 C 68.59285,38.314021 68.59285,36.142592 68.59285,34.864021 C 68.59285,33.478306 68.59285,31.556878 69.45,29.992592 C 70.40714,28.349735 72.07857,27.606878 73.5,27.606878 L 73.53571,26.821164 C 69.09285,26.821164 65.64285,30.699735 65.64285,35.149735 C 65.64285,39.742592 69.33571,43.156878 73.5,43.156878 C 77.80714,43.156878 81.4,39.671163 81.4,35.149735 z"
         id="path6102"
         style="font-style:normal;font-variant:normal;font-weight:normal;font-stretch:normal;letter-spacing:normal;word-spacing:normal;text-anchor:start;fill:#000000;fill-opacity:1;fill-rule:evenodd;stroke:#000000;stroke-width:0;stroke-linecap:butt;stroke-linejoin:miter;stroke-miterlimit:10.43299961;stroke-dasharray:none;stroke-dashoffset:0;stroke-opacity:1" />
      <path
         d="M 14.23571,18.906878 L 14.23571,18.528307 L 14.24285,18.149735 L 14.25714,17.778307 L 14.27857,17.414021 L 14.30714,17.049735 L 14.34285,16.699735 L 14.38571,16.349735 L 14.44285,16.006878 L 14.50714,15.671164 L 14.58571,15.342593 L 14.67857,15.014021 L 14.78571,14.699735 L 14.84285,14.542593 L 14.9,14.38545 L 14.96428,14.23545 L 15.03571,14.08545 L 15.11428,13.93545 L 15.18571,13.792593 L 15.27142,13.642593 L 15.35714,13.499735 C 16.19999,12.156878 17.54999,11.23545 19.14285,11.23545 C 19.89285,11.23545 20.88571,11.43545 21.38571,12.106878 C 20.76428,12.156878 20.23571,12.578307 20.23571,13.299735 C 20.23571,13.921164 20.66428,14.471164 21.40714,14.471164 C 22.15714,14.471164 22.60714,13.978307 22.60714,13.249735 C 22.60714,11.806878 21.55714,10.514021 19.09285,10.514021 C 15.50714,10.514021 11.84285,13.799735 11.84285,19.156878 C 11.84285,25.606878 14.88571,27.549735 17.62142,27.549735 C 20.66428,27.549735 23.29999,25.228307 23.29999,21.971164 C 23.29999,18.806878 20.78571,16.464021 17.87142,16.464021 L 17.74999,17.164021 C 18.89285,17.164021 19.66428,17.614021 20.28571,18.528307 C 20.88571,19.478307 20.90714,20.521164 20.90714,21.971164 C 20.90714,23.38545 20.90714,24.43545 20.23571,25.406878 C 19.64285,26.278307 18.84285,26.749735 17.62142,26.749735 L 17.62142,26.749735 C 16.37857,26.749735 15.40714,26.028307 14.88571,24.935449 C 14.50714,24.18545 14.31428,22.942592 14.31428,21.449735 C 14.31428,19.028307 15.74999,17.164021 17.74999,17.164021 L 17.87142,16.464021 C 15.87857,16.464021 14.78571,17.78545 14.23571,18.906878 z"
         id="path6104"
         style="font-style:normal;font-variant:normal;font-weight:normal;font-stretch:normal;letter-spacing:normal;word-spacing:normal;text-anchor:start;fill:#000000;fill-opacity:1;fill-rule:evenodd;stroke:#000000;stroke-width:0;stroke-linecap:butt;stroke-linejoin:miter;stroke-miterlimit:10.43299961;stroke-dasharray:none;stroke-dashoffset:0;stroke-opacity:1" />
      <path
         d="M 36.92142,19.099735 L 36.92142,18.599735 L 36.90714,18.114021 L 36.88571,17.642593 L 36.85714,17.18545 L 36.81428,16.742593 L 36.75714,16.321164 L 36.69285,15.906878 L 36.61428,15.506878 L 36.52857,15.114021 L 36.42142,14.73545 L 36.29999,14.371164 L 36.16428,14.014021 L 36.01428,13.664021 L 35.84285,13.321164 L 35.65714,12.98545 L 35.55714,12.814021 L 35.44999,12.649735 C 34.67857,11.506878 33.13571,10.514021 31.14285,10.514021 L 31.14285,11.206878 C 32.48571,11.206878 33.78571,12.028307 34.23571,13.478307 C 34.62857,14.821164 34.65714,16.614021 34.65714,18.778307 C 34.65714,20.621164 34.65714,22.471164 34.33571,24.03545 C 33.83571,26.299735 32.14285,26.849735 31.14285,26.849735 L 31.14285,26.849735 C 29.99999,26.849735 28.47857,26.178307 27.97857,24.13545 C 27.62857,22.664021 27.62857,20.621164 27.62857,18.778307 C 27.62857,16.964021 27.62857,15.071164 28.00714,13.699735 C 28.52857,11.728307 30.12142,11.206878 31.14285,11.206878 L 31.14285,10.514021 C 25.36428,10.514021 25.36428,17.314021 25.36428,19.099735 C 25.36428,20.899735 25.36428,27.549735 31.14285,27.549735 C 36.92142,27.549735 36.92142,20.899735 36.92142,19.099735 z"
         id="path6106"
         style="font-style:normal;font-variant:normal;font-weight:normal;font-stretch:normal;letter-spacing:normal;word-spacing:normal;text-anchor:start;fill:#000000;fill-opacity:1;fill-rule:evenodd;stroke:#000000;stroke-width:0;stroke-linecap:butt;stroke-linejoin:miter;stroke-miterlimit:10.43299961;stroke-dasharray:none;stroke-dashoffset:0;stroke-opacity:1" />
    </g>
    <path
       d="M -130.06635,422.27289 L 68.66247,422.27289 L 68.66247,422.27289"
       id="path6212"
       style="font-style:normal;font-variant:normal;font-weight:normal;font-stretch:normal;letter-spacing:normal;word-spacing:normal;text-anchor:start;fill:none;fill-opacity:1;fill-rule:evenodd;stroke:#000000;stroke-width:3.0309999;stroke-linecap:butt;stroke-linejoin:miter;stroke-miterlimit:10.43299961;stroke-dasharray:none;stroke-dashoffset:0;stroke-opacity:1" />
    <path
       d="M 187.44092,458.27289 L 387.2372,458.27289 L 387.2372,458.27289"
       id="path6214"
       style="font-style:normal;font-variant:normal;font-weight:normal;font-stretch:normal;letter-spacing:normal;word-spacing:normal;text-anchor:start;opacity:1;fill:none;fill-opacity:1;fill-rule:evenodd;stroke:#000000;stroke-width:3.0309999;stroke-linecap:butt;stroke-linejoin:miter;marker:none;marker-start:none;marker-mid:none;marker-end:none;stroke-miterlimit:10.43299961;stroke-dasharray:none;stroke-dashoffset:0;stroke-opacity:1;visibility:visible;display:inline;overflow:visible;enable-background:accumulate" />
    <path
       d="M 212.12512,569.09995 L 216.47099,569.09995 L 214.29806,578.94582 L 212.12512,569.09995"
       id="path6808"
       style="font-style:normal;font-variant:normal;font-weight:normal;font-stretch:normal;letter-spacing:normal;word-spacing:normal;text-anchor:start;fill:#000000;fill-opacity:1;fill-rule:evenodd;stroke:#000000;stroke-width:0.65413159px;stroke-linecap:butt;stroke-linejoin:miter;stroke-miterlimit:10.43299961;stroke-dasharray:none;stroke-dashoffset:0;stroke-opacity:1" />
    <path
       d="M 214.32508,458.29991 L 214.32508,574.24586"
       id="path6810"
       style="font-style:normal;font-variant:normal;font-weight:normal;font-stretch:normal;letter-spacing:normal;word-spacing:normal;text-anchor:start;fill:none;fill-opacity:1;fill-rule:evenodd;stroke:#000000;stroke-width:0.99999994;stroke-linecap:butt;stroke-linejoin:miter;stroke-miterlimit:10.43299961;stroke-dasharray:none;stroke-dashoffset:0;stroke-opacity:1" />
    <path
       d="M 186.93329,579.34139 L 386.72956,579.34139 L 386.72956,579.34139"
       id="path6812"
       style="font-style:normal;font-variant:normal;font-weight:normal;font-stretch:normal;letter-spacing:normal;word-spacing:normal;text-anchor:start;opacity:1;fill:none;fill-opacity:1;fill-rule:evenodd;stroke:#000000;stroke-width:3.0309999;stroke-linecap:butt;stroke-linejoin:miter;marker:none;marker-start:none;marker-mid:none;marker-end:none;stroke-miterlimit:10.43299961;stroke-dasharray:none;stroke-dashoffset:0;stroke-opacity:1;visibility:visible;display:inline;overflow:visible;enable-background:accumulate" />
    <path
       d="M 236.12513,706.09996 L 240.47099,706.09996 L 238.29806,715.94583 L 236.12513,706.09996"
       id="path6816"
       style="font-style:normal;font-variant:normal;font-weight:normal;font-stretch:normal;letter-spacing:normal;word-spacing:normal;text-anchor:start;fill:#000000;fill-opacity:1;fill-rule:evenodd;stroke:#000000;stroke-width:0.65413159px;stroke-linecap:butt;stroke-linejoin:miter;stroke-miterlimit:10.43299961;stroke-dasharray:none;stroke-dashoffset:0;stroke-opacity:1" />
    <path
       d="M 238.39716,578.37199 L 238.39716,710.17379"
       id="path6818"
       style="font-style:normal;font-variant:normal;font-weight:normal;font-stretch:normal;letter-spacing:normal;word-spacing:normal;text-anchor:start;fill:none;fill-opacity:1;fill-rule:evenodd;stroke:#000000;stroke-width:0.99999994;stroke-linecap:butt;stroke-linejoin:miter;stroke-miterlimit:10.43299961;stroke-dasharray:none;stroke-dashoffset:0;stroke-opacity:1" />
    <path
       d="M 186.93329,716.34139 L 386.72956,716.34139 L 386.72956,716.34139"
       id="path6841"
       style="font-style:normal;font-variant:normal;font-weight:normal;font-stretch:normal;letter-spacing:normal;word-spacing:normal;text-anchor:start;opacity:1;fill:none;fill-opacity:1;fill-rule:evenodd;stroke:#000000;stroke-width:3.0309999;stroke-linecap:butt;stroke-linejoin:miter;marker:none;marker-start:none;marker-mid:none;marker-end:none;stroke-miterlimit:10.43299961;stroke-dasharray:none;stroke-dashoffset:0;stroke-opacity:1;visibility:visible;display:inline;overflow:visible;enable-background:accumulate" />
    <g
       transform="translate(-88.29453,643.37229)"
       id="g6954">
      <g
         transform="matrix(0.7142857,0,0,-0.7142857,-125,375)"
         id="g6956"
         xml:space="preserve"
         style="font-style:normal;font-variant:normal;font-weight:normal;font-stretch:normal;letter-spacing:normal;word-spacing:normal;text-anchor:start;fill:none;fill-opacity:1;fill-rule:evenodd;stroke:#000000;stroke-linecap:butt;stroke-linejoin:miter;stroke-miterlimit:10.43299961;stroke-dasharray:none;stroke-dashoffset:0;stroke-opacity:1"><path
           d="M 473.61,405.35 L 472.42,405.35 C 472.32,404.58 471.97,402.52 471.52,402.17 C 471.24,401.96 468.55,401.96 468.07,401.96 L 461.65,401.96 C 465.31,405.21 466.53,406.18 468.62,407.82 C 471.2,409.88 473.61,412.04 473.61,415.36 C 473.61,419.57 469.91,422.15 465.45,422.15 C 461.13,422.15 458.2,419.12 458.2,415.91 C 458.2,414.13 459.7,413.96 460.04,413.96 C 460.88,413.96 461.89,414.55 461.89,415.81 C 461.89,416.43 461.65,417.66 459.84,417.66 C 460.92,420.13 463.29,420.9 464.93,420.9 C 468.41,420.9 470.23,418.18 470.23,415.36 C 470.23,412.32 468.07,409.91 466.95,408.66 L 458.55,400.36 C 458.2,400.05 458.2,399.98 458.2,399 L 472.56,399 L 473.61,405.35 z"
           id="path6958"
           style="fill:#000000;stroke-width:0" /><path
           d="M 487.38,411.59 L 487.63,411.71 L 487.88,411.84 L 488.12,411.97 L 488.35,412.1 L 488.58,412.23 L 488.8,412.37 L 489.02,412.51 L 489.22,412.65 L 489.43,412.79 L 489.62,412.94 L 489.81,413.08 L 489.99,413.23 L 490.16,413.39 L 490.32,413.54 L 490.48,413.7 L 490.63,413.87 L 490.77,414.03 L 490.91,414.2 L 491.03,414.37 L 491.15,414.55 L 491.26,414.73 L 491.36,414.91 L 491.45,415.1 L 491.53,415.29 L 491.6,415.48 L 491.66,415.68 L 491.72,415.88 L 491.76,416.09 L 491.8,416.3 L 491.82,416.51 L 491.84,416.73 L 491.84,416.96 C 491.84,420.34 488.32,422.15 484.94,422.15 L 484.87,421.14 C 487.59,421.14 489.99,419.43 489.99,416.96 C 489.99,413.86 486.37,412.29 486.3,412.29 C 486.23,412.29 486.16,412.32 485.91,412.46 L 481.7,414.9 C 480.79,415.42 479.81,416.36 479.81,417.66 C 479.81,419.85 482.36,421.14 484.87,421.14 L 484.94,422.15 C 481.1,422.15 477.96,419.64 477.96,416.33 C 477.96,414.69 478.73,413.5 479.36,412.81 C 479.98,412.07 480.23,411.94 482.29,410.71 C 480.34,409.88 476.88,408 476.88,404.34 C 476.88,400.46 480.89,398.3 484.87,398.3 L 484.94,399.42 C 481.73,399.42 478.98,401.48 478.98,404.34 C 478.98,406.91 480.89,408.9 483.4,410.05 L 483.4,410.05 C 485.36,408.94 485.43,408.94 488.18,407.3 C 489.09,406.78 490.83,405.73 490.83,403.67 C 490.83,401.06 487.94,399.42 484.94,399.42 L 484.87,398.3 C 489.3,398.3 492.92,401.13 492.92,404.89 C 492.92,407.2 491.56,409.15 489.54,410.33 C 489.09,410.61 487.87,411.31 487.38,411.59 z"
           id="path6960"
           style="fill:#000000;stroke-width:0" /><path
           d="M 509.56,439.38 L 509.52,439.43 L 509.48,439.48 L 509.44,439.53 L 509.41,439.57 L 509.37,439.62 L 509.34,439.66 L 509.31,439.69 L 509.28,439.73 L 509.25,439.76 L 509.21,439.79 L 509.18,439.82 L 509.15,439.84 L 509.12,439.87 L 509.09,439.89 L 509.06,439.91 L 509.02,439.92 L 508.99,439.94 L 508.95,439.95 L 508.91,439.96 L 508.87,439.98 L 508.82,439.99 L 508.78,439.99 L 508.73,440 L 508.67,440.01 L 508.62,440.01 L 508.56,440.01 L 508.5,440.02 L 508.43,440.02 L 508.36,440.02 L 508.32,440.02 L 508.28,440.02 L 508.24,440.02 L 508.2,440.02 L 508.16,440.02 L 508.11,440.02 L 499.64,440.02 L 499.64,438.48 L 501.09,438.48 C 501.84,438.48 502.83,438.43 503.58,438.38 C 504.73,438.23 504.77,438.18 504.77,437.23 L 504.77,411.23 C 504.77,409.89 504.77,407.54 499.64,407.54 L 499.64,406 C 501.39,406.05 503.83,406.15 505.47,406.15 C 507.12,406.15 509.56,406.05 511.3,406 L 511.3,407.54 C 506.17,407.54 506.17,409.89 506.17,411.23 L 506.17,437.13 C 506.42,436.88 506.47,436.84 506.67,436.54 L 526.99,406.65 C 527.44,406.05 527.49,406 527.84,406 C 528.53,406 528.53,406.35 528.53,407.3 L 528.53,434.79 C 528.53,436.14 528.53,438.48 533.67,438.48 L 533.67,440.02 C 531.92,439.97 529.48,439.87 527.84,439.87 C 526.2,439.87 523.75,439.97 522.01,440.02 L 522.01,438.48 C 527.14,438.48 527.14,436.14 527.14,434.79 L 527.14,413.52 L 509.56,439.38 z"
           id="path6962"
           style="fill:#000000;stroke-width:0" /><path
           d="M 543.82,428.02 L 536.84,427.47 L 536.84,425.93 C 540.08,425.93 540.53,425.63 540.53,423.18 L 540.53,409.79 C 540.53,407.54 539.98,407.54 536.65,407.54 L 536.65,406 C 538.24,406.05 540.93,406.15 542.13,406.15 C 543.87,406.15 545.61,406.05 547.3,406 L 547.3,407.54 C 544.02,407.54 543.82,407.79 543.82,409.73 L 543.82,428.02 z"
           id="path6964"
           style="fill:#000000;stroke-width:0" /><path
           d="M 544.02,436.68 L 544.01,436.83 L 544,436.98 L 543.98,437.12 L 543.96,437.25 L 543.93,437.39 L 543.89,437.52 L 543.85,437.65 L 543.8,437.77 L 543.74,437.89 L 543.68,438 L 543.62,438.11 L 543.55,438.22 L 543.47,438.32 L 543.39,438.42 L 543.31,438.51 L 543.22,438.6 L 543.13,438.69 L 543.03,438.76 L 542.93,438.84 L 542.82,438.91 L 542.72,438.97 L 542.61,439.03 L 542.49,439.09 L 542.38,439.14 L 542.26,439.18 L 542.14,439.22 L 542.01,439.25 L 541.89,439.28 L 541.76,439.3 L 541.63,439.31 L 541.51,439.32 L 541.38,439.32 C 539.83,439.32 538.73,437.98 538.73,436.68 C 538.73,435.34 539.83,434.04 541.38,434.04 C 542.77,434.04 544.02,435.09 544.02,436.68 z"
           id="path6966"
           style="fill:#000000;stroke-width:0" /><path
           d="M 460.43,439.4 L 460.43,439.93 L 460.44,440.46 L 460.46,440.98 L 460.49,441.49 L 460.53,442 L 460.58,442.49 L 460.64,442.98 L 460.72,443.46 L 460.81,443.93 L 460.92,444.39 L 461.05,444.85 L 461.2,445.29 L 461.28,445.51 L 461.36,445.73 L 461.45,445.94 L 461.55,446.15 L 461.66,446.36 L 461.76,446.56 L 461.88,446.77 L 462,446.97 C 463.18,448.85 465.07,450.14 467.3,450.14 C 468.35,450.14 469.74,449.86 470.44,448.92 C 469.57,448.85 468.83,448.26 468.83,447.25 C 468.83,446.38 469.43,445.61 470.47,445.61 C 471.52,445.61 472.15,446.3 472.15,447.32 C 472.15,449.34 470.68,451.15 467.23,451.15 C 462.21,451.15 457.08,446.55 457.08,439.05 C 457.08,430.02 461.34,427.3 465.17,427.3 C 469.43,427.3 473.12,430.55 473.12,435.11 C 473.12,439.54 469.6,442.82 465.52,442.82 L 465.35,441.84 C 466.95,441.84 468.03,441.21 468.9,439.93 C 469.74,438.6 469.77,437.14 469.77,435.11 C 469.77,433.13 469.77,431.66 468.83,430.3 C 468,429.08 466.88,428.42 465.17,428.42 L 465.17,428.42 C 463.43,428.42 462.07,429.43 461.34,430.96 C 460.81,432.01 460.54,433.75 460.54,435.84 C 460.54,439.23 462.55,441.84 465.35,441.84 L 465.52,442.82 C 462.73,442.82 461.2,440.97 460.43,439.4 z"
           id="path6968"
           style="fill:#000000;stroke-width:0" /><path
           d="M 493.19,439.13 L 493.19,439.83 L 493.17,440.51 L 493.14,441.17 L 493.1,441.81 L 493.04,442.43 L 492.96,443.02 L 492.87,443.6 L 492.76,444.16 L 492.64,444.71 L 492.49,445.24 L 492.32,445.75 L 492.13,446.25 L 491.92,446.74 L 491.68,447.22 L 491.42,447.69 L 491.28,447.93 L 491.13,448.16 C 490.05,449.76 487.89,451.15 485.1,451.15 L 485.1,450.18 C 486.98,450.18 488.8,449.03 489.43,447 C 489.98,445.12 490.02,442.61 490.02,439.58 C 490.02,437 490.02,434.41 489.57,432.22 C 488.87,429.05 486.5,428.28 485.1,428.28 L 485.1,428.28 C 483.5,428.28 481.37,429.22 480.67,432.08 C 480.18,434.14 480.18,437 480.18,439.58 C 480.18,442.12 480.18,444.77 480.71,446.69 C 481.44,449.45 483.67,450.18 485.1,450.18 L 485.1,451.15 C 477.01,451.15 477.01,441.63 477.01,439.13 C 477.01,436.61 477.01,427.3 485.1,427.3 C 493.19,427.3 493.19,436.61 493.19,439.13 z"
           id="path6970"
           style="fill:#000000;stroke-width:0" /></g>    </g>
    <path
       d="M -23.70194,422.27289 L 180.18695,577.60622"
       id="path2510"
       style="fill:none;fill-rule:evenodd;stroke:#000000;stroke-width:1px;stroke-linecap:butt;stroke-linejoin:miter;marker-end:url(#Arrow2Lend);stroke-opacity:1" />
    <path
       d="M -23.20089,423.03321 L 180.9464,457.52949"
       id="path4062"
       style="fill:none;fill-opacity:1;fill-rule:evenodd;stroke:#000000;stroke-width:1px;stroke-linecap:butt;stroke-linejoin:miter;marker:none;marker-start:none;marker-mid:none;marker-end:url(#Arrow2Lend);stroke-miterlimit:4;stroke-dasharray:none;stroke-dashoffset:0;stroke-opacity:1;visibility:visible;display:inline;overflow:visible;enable-background:accumulate" />
    <text
       x="-130.19283"
       y="448.65848"
       id="text4104"
       xml:space="preserve"
       style="font-size:25px;font-style:normal;font-variant:normal;font-weight:normal;font-stretch:normal;text-indent:0;text-align:start;text-decoration:none;line-height:125%;letter-spacing:normal;word-spacing:normal;text-transform:none;direction:ltr;block-progression:tb;writing-mode:lr-tb;text-anchor:start;fill:#000000;fill-opacity:1;fill-rule:nonzero;stroke:none;stroke-width:1px;stroke-linecap:butt;stroke-linejoin:miter;marker:none;marker-start:none;marker-mid:none;marker-end:none;stroke-miterlimit:4;stroke-dasharray:none;stroke-dashoffset:0;stroke-opacity:1;visibility:visible;display:inline;overflow:visible;enable-background:accumulate;font-family:Times New Roman;-inkscape-font-specification:Times New Roman"><tspan
         x="-130.19283"
         y="448.65848"
         id="tspan4106"
         style="font-size:28px;font-style:normal;font-variant:normal;font-weight:normal;font-stretch:normal;font-family:Arial;-inkscape-font-specification:Arial">5.272 a</tspan></text>
    <path
       d="M 187.19445,493.08946 L 386.99073,493.08946 L 386.99073,493.08946"
       id="path2748"
       style="font-style:normal;font-variant:normal;font-weight:normal;font-stretch:normal;letter-spacing:normal;word-spacing:normal;text-anchor:start;fill:none;fill-opacity:1;fill-rule:evenodd;stroke:#000000;stroke-width:1.23699999;stroke-linecap:butt;stroke-linejoin:miter;stroke-miterlimit:10.43299961;stroke-dasharray:none;stroke-dashoffset:0;stroke-opacity:1" />
    <path
       d="M -129.83948,406.63088 L 68.889333,406.63088 L 68.889333,406.63088"
       id="path2780"
       style="font-style:normal;font-variant:normal;font-weight:normal;font-stretch:normal;letter-spacing:normal;word-spacing:normal;text-anchor:start;fill:none;fill-opacity:1;fill-rule:evenodd;stroke:#000000;stroke-width:1.63100004;stroke-linecap:butt;stroke-linejoin:miter;stroke-miterlimit:10.43299961;stroke-dasharray:none;stroke-dashoffset:0;stroke-opacity:1" />
    <g
       transform="matrix(0.8182459,0.5748683,-0.5748683,0.8182459,351.97312,16.906226)"
       id="g2862">
      <text
         x="104.13421"
         y="579.21405"
         id="text4117"
         xml:space="preserve"
         style="font-size:25px;font-style:normal;font-variant:normal;font-weight:400;font-stretch:normal;text-indent:0;text-align:start;text-decoration:none;line-height:100%;letter-spacing:normal;word-spacing:normal;text-transform:none;direction:ltr;block-progression:tb;writing-mode:lr-tb;text-anchor:start;fill:#000000;fill-opacity:1;fill-rule:nonzero;stroke:none;stroke-width:0;stroke-linecap:butt;stroke-linejoin:miter;marker:none;marker-start:none;marker-mid:none;marker-end:none;stroke-miterlimit:0;stroke-dasharray:none;stroke-dashoffset:0;stroke-opacity:1;visibility:visible;display:inline;overflow:visible;enable-background:accumulate;font-family:Times New Roman;-inkscape-font-specification:Bitstream Vera Sans"><tspan
           x="104.13421"
           y="579.21405"
           id="tspan4119"
           style="font-size:16px;font-style:normal;font-variant:normal;font-weight:normal;font-stretch:normal;font-family:Arial;-inkscape-font-specification:Arial">0.12%</tspan></text>
      <text
         x="-24.851849"
         y="578.43622"
         id="text2788"
         xml:space="preserve"
         style="font-size:24px;font-style:normal;font-variant:normal;font-weight:normal;font-stretch:normal;text-align:start;line-height:125%;writing-mode:lr-tb;text-anchor:start;fill:#000000;fill-opacity:1;stroke:none;stroke-width:1px;stroke-linecap:butt;stroke-linejoin:miter;stroke-opacity:1;font-family:Arial;-inkscape-font-specification:Arial"><tspan
           x="-24.851849"
           y="578.43622"
           id="tspan2790">1.48 MeV β</tspan></text>
    </g>
    <text
       x="217.33331"
       y="563.47327"
       id="text2792"
       xml:space="preserve"
       style="font-size:24px;font-style:normal;font-variant:normal;font-weight:normal;font-stretch:normal;text-align:start;line-height:100%;writing-mode:lr-tb;text-anchor:start;fill:#000000;fill-opacity:1;stroke:none;stroke-width:1px;stroke-linecap:butt;stroke-linejoin:miter;stroke-opacity:1;font-family:Arial;-inkscape-font-specification:Arial"><tspan
         x="217.33331"
         y="563.47327"
         id="tspan2830">1.1732 MeV γ</tspan></text>
    <text
       x="242.33334"
       y="703.28809"
       id="text2796"
       xml:space="preserve"
       style="font-size:24px;font-style:normal;font-variant:normal;font-weight:normal;font-stretch:normal;text-align:start;line-height:100%;writing-mode:lr-tb;text-anchor:start;fill:#000000;fill-opacity:1;stroke:none;stroke-width:1px;stroke-linecap:butt;stroke-linejoin:miter;stroke-opacity:1;font-family:Arial;-inkscape-font-specification:Arial"><tspan
         x="242.33334"
         y="703.28809"
         id="tspan2832">1.3325 MeV γ</tspan></text>
    <text
       x="-130.55556"
       y="401.43625"
       id="text3646"
       xml:space="preserve"
       style="font-size:24px;font-style:normal;font-variant:normal;font-weight:normal;font-stretch:normal;text-align:start;line-height:125%;writing-mode:lr-tb;text-anchor:start;fill:#000000;fill-opacity:1;stroke:none;stroke-width:1px;stroke-linecap:butt;stroke-linejoin:miter;stroke-opacity:1;font-family:Arial;-inkscape-font-specification:Arial"><tspan
         x="-130.55556"
         y="401.43625"
         id="tspan3648"
         style="font-size:20px;font-style:normal;font-variant:normal;font-weight:normal;font-stretch:normal;font-family:Arial;-inkscape-font-specification:Arial">Co 60m</tspan></text>
    <text
       x="-50"
       y="401.43625"
       id="text3672"
       xml:space="preserve"
       style="font-size:24px;font-style:normal;font-variant:normal;font-weight:normal;font-stretch:normal;text-align:start;line-height:125%;writing-mode:lr-tb;text-anchor:start;fill:#000000;fill-opacity:1;stroke:none;stroke-width:1px;stroke-linecap:butt;stroke-linejoin:miter;stroke-opacity:1;font-family:Arial;-inkscape-font-specification:Arial"><tspan
         x="-50"
         y="401.43625"
         id="tspan3674"
         style="font-size:16px">10.467m</tspan></text>
    <g
       transform="translate(-84,0)"
       id="g2514">
      <path
         d="M 46.901135,412.185 L 51.247005,412.185 L 49.074075,422.03087 L 46.901135,412.185"
         id="path2503"
         style="font-style:normal;font-variant:normal;font-weight:normal;font-stretch:normal;letter-spacing:normal;word-spacing:normal;text-anchor:start;fill:#000000;fill-opacity:1;fill-rule:evenodd;stroke:#000000;stroke-width:0.65413159px;stroke-linecap:butt;stroke-linejoin:miter;stroke-miterlimit:10.43299961;stroke-dasharray:none;stroke-dashoffset:0;stroke-opacity:1" />
      <g
         id="g2511">
        <path
           d="M 49.101095,406.47755 L 49.101095,417.33091"
           id="path2505"
           style="font-style:normal;font-variant:normal;font-weight:normal;font-stretch:normal;letter-spacing:normal;word-spacing:normal;text-anchor:start;fill:none;fill-opacity:1;fill-rule:evenodd;stroke:#000000;stroke-width:0.99999994;stroke-linecap:butt;stroke-linejoin:miter;stroke-miterlimit:10.43299961;stroke-dasharray:none;stroke-dashoffset:0;stroke-opacity:1" />
      </g>
    </g>
    <text
       x="-28.190544"
       y="417.39874"
       id="text2507"
       xml:space="preserve"
       style="font-size:24px;font-style:normal;font-variant:normal;font-weight:normal;font-stretch:normal;text-align:start;line-height:100%;writing-mode:lr-tb;text-anchor:start;fill:#000000;fill-opacity:1;stroke:none;stroke-width:1px;stroke-linecap:butt;stroke-linejoin:miter;stroke-opacity:1;font-family:Arial;-inkscape-font-specification:Arial"><tspan
         x="-28.190544"
         y="417.39874"
         id="tspan2509"
         style="font-size:11px">0.05859 MeV γ</tspan></text>
    <text
       x="390.27777"
       y="464.39923"
       id="text2519"
       xml:space="preserve"
       style="font-size:24px;font-style:normal;font-variant:normal;font-weight:normal;font-stretch:normal;text-align:start;line-height:125%;writing-mode:lr-tb;text-anchor:start;fill:#000000;fill-opacity:1;stroke:none;stroke-width:1px;stroke-linecap:butt;stroke-linejoin:miter;stroke-opacity:1;font-family:Arial;-inkscape-font-specification:Arial"><tspan
         x="390.27777"
         y="464.39923"
         id="tspan2521"
         style="font-size:18px">2.505 4+</tspan></text>
    <text
       x="390.27777"
       y="498.99884"
       id="text2523"
       xml:space="preserve"
       style="font-size:24px;font-style:normal;font-variant:normal;font-weight:normal;font-stretch:normal;text-align:start;line-height:125%;writing-mode:lr-tb;text-anchor:start;fill:#000000;fill-opacity:1;stroke:none;stroke-width:1px;stroke-linecap:butt;stroke-linejoin:miter;stroke-opacity:1;font-family:Arial;-inkscape-font-specification:Arial"><tspan
         x="390.27777"
         y="498.99884"
         id="tspan2525"
         style="font-size:18px">2.158 2+</tspan></text>
    <text
       x="390.27777"
       y="584.76959"
       id="text2527"
       xml:space="preserve"
       style="font-size:18px;font-style:normal;font-variant:normal;font-weight:normal;font-stretch:normal;text-align:start;line-height:125%;writing-mode:lr-tb;text-anchor:start;fill:#000000;fill-opacity:1;stroke:none;stroke-width:1px;stroke-linecap:butt;stroke-linejoin:miter;stroke-opacity:1;font-family:Arial;-inkscape-font-specification:Arial"><tspan
         x="390.27777"
         y="584.76959"
         id="tspan2529">1.332 2+</tspan></text>
    <text
       x="411.5748"
       y="723.65845"
       id="text2531"
       xml:space="preserve"
       style="font-size:18px;font-style:normal;font-variant:normal;font-weight:normal;font-stretch:normal;text-align:start;line-height:125%;writing-mode:lr-tb;text-anchor:start;fill:#000000;fill-opacity:1;stroke:none;stroke-width:1px;stroke-linecap:butt;stroke-linejoin:miter;stroke-opacity:1;font-family:Arial;-inkscape-font-specification:Arial"><tspan
         x="411.5748"
         y="723.65845"
         id="tspan2533">0+</tspan></text>
    <text
       x="71.29631"
       y="428.28812"
       id="text2535"
       xml:space="preserve"
       style="font-size:18px;font-style:normal;font-variant:normal;font-weight:normal;font-stretch:normal;text-align:start;line-height:125%;writing-mode:lr-tb;text-anchor:start;fill:#000000;fill-opacity:1;stroke:none;stroke-width:1px;stroke-linecap:butt;stroke-linejoin:miter;stroke-opacity:1;font-family:Arial;-inkscape-font-specification:Arial"><tspan
         x="71.29631"
         y="428.28812"
         id="tspan2537">5+</tspan></text>
    <text
       x="73.611107"
       y="409.30664"
       id="text2539"
       xml:space="preserve"
       style="font-size:18px;font-style:normal;font-variant:normal;font-weight:normal;font-stretch:normal;text-align:start;line-height:125%;writing-mode:lr-tb;text-anchor:start;fill:#000000;fill-opacity:1;stroke:none;stroke-width:1px;stroke-linecap:butt;stroke-linejoin:miter;stroke-opacity:1;font-family:Arial;-inkscape-font-specification:Arial"><tspan
         x="73.611107"
         y="409.30664"
         id="tspan2541"
         style="font-size:11px">2+</tspan></text>
  </g>
</svg>
